<?xml version="1.0" encoding="utf-8"?>
<!-- Generator: Adobe Illustrator 21.1.0, SVG Export Plug-In . SVG Version: 6.00 Build 0)  -->
<svg version="1.1" id="Layer_1" xmlns="http://www.w3.org/2000/svg" xmlns:xlink="http://www.w3.org/1999/xlink" x="0px" y="0px"
	 viewBox="0 0 979.9 788.8" style="enable-background:new 0 0 979.9 788.8;" xml:space="preserve">
<style type="text/css">
	.st0{fill:#FFFFFF;}
</style>
<g>
	<path class="st0" d="M979.9,76.5c0-44.2-33.5-76.5-77.7-76.5c-23.9,0-45.4,14.3-45.4,14.3c-205.5,110-533,481.6-533,481.6
		c-23.9-20.2-169.7-154.1-169.7-154.1s0,0-1.2,0l-1.2-1.2l0,0c-19.1-14.3-38.2-25.1-62.1-25.1C39.4,315.5,0,356.1,0,405.1
		c0,27.5,19.1,55,32.3,68.1c92,88.4,192.4,206.8,225.9,257c21.5,32.3,46.6,58.6,86,58.6c27.5,0,49-12,65.7-31.1
		c6-7.2,13.1-15.5,20.3-27.5c57.4-93.2,257-398,492.4-572.5C956,131.5,979.9,113.6,979.9,76.5z"/>
</g>
</svg>
